<?xml version="1.0" standalone="no"?><!DOCTYPE svg PUBLIC "-//W3C//DTD SVG 1.1//EN" "http://www.w3.org/Graphics/SVG/1.1/DTD/svg11.dtd"><svg xmlns="http://www.w3.org/2000/svg" height="800" width="1100"><g transform="translate(50,1)"><rect width="1100" height="800" transform="translate(-50,-11)" fill="#F8F8F8" rx="20"/><path class="link" fill="none" stroke="#ccc" d="M200,389.5C170,389.5 160,389.5 150,389.5"/><path class="link" fill="none" stroke="#ccc" d="M400,34.71052631578947C370,34.71052631578947 360,389.5 350,389.5"/><path class="link" fill="none" stroke="#ccc" d="M400,113.55263157894737C370,113.55263157894737 360,389.5 350,389.5"/><path class="link" fill="none" stroke="#ccc" d="M400,290.9473684210526C370,290.9473684210526 360,389.5 350,389.5"/><path class="link" fill="none" stroke="#ccc" d="M400,527.4736842105262C370,527.4736842105262 360,389.5 350,389.5"/><path class="link" fill="none" stroke="#ccc" d="M400,665.4473684210526C370,665.4473684210526 360,389.5 350,389.5"/><path class="link" fill="none" stroke="#ccc" d="M400,704.8684210526316C370,704.8684210526316 360,389.5 350,389.5"/><path class="link" fill="none" stroke="#ccc" d="M400,744.2894736842105C370,744.2894736842105 360,389.5 350,389.5"/><path class="link" fill="none" stroke="#ccc" d="M600,34.71052631578947C570,34.71052631578947 560,34.71052631578947 550,34.71052631578947"/><path class="link" fill="none" stroke="#ccc" d="M600,74.13157894736841C570,74.13157894736841 560,113.55263157894737 550,113.55263157894737"/><path class="link" fill="none" stroke="#ccc" d="M600,113.55263157894737C570,113.55263157894737 560,113.55263157894737 550,113.55263157894737"/><path class="link" fill="none" stroke="#ccc" d="M600,152.9736842105263C570,152.9736842105263 560,113.55263157894737 550,113.55263157894737"/><path class="link" fill="none" stroke="#ccc" d="M600,192.39473684210526C570,192.39473684210526 560,290.9473684210526 550,290.9473684210526"/><path class="link" fill="none" stroke="#ccc" d="M600,231.8157894736842C570,231.8157894736842 560,290.9473684210526 550,290.9473684210526"/><path class="link" fill="none" stroke="#ccc" d="M600,271.2368421052631C570,271.2368421052631 560,290.9473684210526 550,290.9473684210526"/><path class="link" fill="none" stroke="#ccc" d="M600,310.6578947368421C570,310.6578947368421 560,290.9473684210526 550,290.9473684210526"/><path class="link" fill="none" stroke="#ccc" d="M600,350.07894736842104C570,350.07894736842104 560,290.9473684210526 550,290.9473684210526"/><path class="link" fill="none" stroke="#ccc" d="M600,389.5C570,389.5 560,290.9473684210526 550,290.9473684210526"/><path class="link" fill="none" stroke="#ccc" d="M600,428.9210526315789C570,428.9210526315789 560,527.4736842105262 550,527.4736842105262"/><path class="link" fill="none" stroke="#ccc" d="M600,468.34210526315786C570,468.34210526315786 560,527.4736842105262 550,527.4736842105262"/><path class="link" fill="none" stroke="#ccc" d="M600,507.7631578947368C570,507.7631578947368 560,527.4736842105262 550,527.4736842105262"/><path class="link" fill="none" stroke="#ccc" d="M600,547.1842105263157C570,547.1842105263157 560,527.4736842105262 550,527.4736842105262"/><path class="link" fill="none" stroke="#ccc" d="M600,586.6052631578947C570,586.6052631578947 560,527.4736842105262 550,527.4736842105262"/><path class="link" fill="none" stroke="#ccc" d="M600,626.0263157894736C570,626.0263157894736 560,527.4736842105262 550,527.4736842105262"/><path class="link" fill="none" stroke="#ccc" d="M600,665.4473684210526C570,665.4473684210526 560,665.4473684210526 550,665.4473684210526"/><path class="link" fill="none" stroke="#ccc" d="M600,704.8684210526316C570,704.8684210526316 560,704.8684210526316 550,704.8684210526316"/><path class="link" fill="none" stroke="#ccc" d="M600,744.2894736842105C570,744.2894736842105 560,744.2894736842105 550,744.2894736842105"/><path class="link" fill="none" stroke="#ccc" d="M800,34.71052631578947C770,34.71052631578947 760,34.71052631578947 750,34.71052631578947"/><g class="node node--internal" transform="translate(0,374.5)"><rect class="node" width="150" height="30" rx="6" ry="6" style="fill: rgb(24, 40, 86);"/><text dy="0.35em" x="75" y="15" text-anchor="middle" font-size="12" style="font-family: arial; fill: rgb(255, 255, 255); font-weight: bold;">Jurisdiction</text></g><g class="node node--internal" transform="translate(200,374.5)"><rect class="node" width="150" height="30" rx="6" ry="6" style="fill: rgb(229, 94, 105);"/><text dy="0.35em" x="75" y="15" text-anchor="middle" font-size="12" style="font-family: arial; fill: rgb(255, 255, 255); font-weight: bold;">Component</text></g><g class="node node--internal" transform="translate(400,19.710526315789473)"><rect class="node" width="150" height="30" rx="6" ry="6" style="fill: rgb(229, 94, 105);"/><text dy="0.35em" x="75" y="15" text-anchor="middle" font-size="12" style="font-family: arial; fill: rgb(255, 255, 255); font-weight: bold;">Estimation Method</text></g><g class="node node--internal" transform="translate(400,98.55263157894737)"><rect class="node" width="150" height="30" rx="6" ry="6" style="fill: rgb(229, 94, 105);"/><text dy="0.35em" x="75" y="15" text-anchor="middle" font-size="12" style="font-family: arial; fill: rgb(255, 255, 255); font-weight: bold;">Flow Type</text></g><g class="node node--internal" transform="translate(400,275.9473684210526)"><rect class="node" width="150" height="30" rx="6" ry="6" style="fill: rgb(229, 94, 105);"/><text dy="0.35em" x="75" y="15" text-anchor="middle" font-size="12" style="font-family: arial; fill: rgb(255, 255, 255); font-weight: bold;">Flow Source</text></g><g class="node node--internal" transform="translate(400,512.4736842105262)"><rect class="node" width="150" height="30" rx="6" ry="6" style="fill: rgb(229, 94, 105);"/><text dy="0.35em" x="75" y="15" text-anchor="middle" font-size="12" style="font-family: arial; fill: rgb(255, 255, 255); font-weight: bold;">Flow Sink</text></g><g class="node node--internal" transform="translate(400,650.4473684210526)"><rect class="node" width="150" height="30" rx="6" ry="6" style="fill: rgb(229, 94, 105);"/><text dy="0.35em" x="75" y="15" text-anchor="middle" font-size="12" style="font-family: arial; fill: rgb(255, 255, 255); font-weight: bold;">Subcomponent</text></g><g class="node node--internal" transform="translate(400,689.8684210526316)"><rect class="node" width="150" height="30" rx="6" ry="6" style="fill: rgb(229, 94, 105);"/><text dy="0.35em" x="75" y="15" text-anchor="middle" font-size="12" style="font-family: arial; fill: rgb(255, 255, 255); font-weight: bold;">Partial Subcomponent</text></g><g class="node node--internal" transform="translate(400,729.2894736842105)"><rect class="node" width="150" height="30" rx="6" ry="6" style="fill: rgb(229, 94, 105);"/><text dy="0.35em" x="75" y="15" text-anchor="middle" font-size="12" style="font-family: arial; fill: rgb(255, 255, 255); font-weight: bold;">Exact Match</text></g><g class="node node--internal" transform="translate(600,19.710526315789473)"><rect class="node" width="150" height="30" rx="6" ry="6" style="fill: rgb(229, 94, 105);"/><text dy="0.35em" x="75" y="15" text-anchor="middle" font-size="12" style="font-family: arial; fill: rgb(255, 255, 255); font-weight: bold;">Parameter</text></g><g class="node node--leaf" transform="translate(600,59.13157894736842)"><rect class="node" width="150" height="30" rx="6" ry="6" style="fill: rgb(169, 169, 169);"/><text dy="0.35em" x="75" y="15" text-anchor="middle" font-size="12" style="font-family: arial; fill: rgb(255, 255, 255); font-weight: bold;">Inflow</text></g><g class="node node--leaf" transform="translate(600,98.55263157894737)"><rect class="node" width="150" height="30" rx="6" ry="6" style="fill: rgb(169, 169, 169);"/><text dy="0.35em" x="75" y="15" text-anchor="middle" font-size="12" style="font-family: arial; fill: rgb(255, 255, 255); font-weight: bold;">Internal Transfer</text></g><g class="node node--leaf" transform="translate(600,137.9736842105263)"><rect class="node" width="150" height="30" rx="6" ry="6" style="fill: rgb(169, 169, 169);"/><text dy="0.35em" x="75" y="15" text-anchor="middle" font-size="12" style="font-family: arial; fill: rgb(255, 255, 255); font-weight: bold;">Outflow</text></g><g class="node node--leaf" transform="translate(600,177.39473684210526)"><rect class="node" width="150" height="30" rx="6" ry="6" style="fill: rgb(169, 169, 169);"/><text dy="0.35em" x="75" y="15" text-anchor="middle" font-size="12" style="font-family: arial; fill: rgb(255, 255, 255); font-weight: bold;">Atmosphere</text></g><g class="node node--leaf" transform="translate(600,216.8157894736842)"><rect class="node" width="150" height="30" rx="6" ry="6" style="fill: rgb(169, 169, 169);"/><text dy="0.35em" x="75" y="15" text-anchor="middle" font-size="12" style="font-family: arial; fill: rgb(255, 255, 255); font-weight: bold;">External Groundwater</text></g><g class="node node--leaf" transform="translate(600,256.2368421052631)"><rect class="node" width="150" height="30" rx="6" ry="6" style="fill: rgb(169, 169, 169);"/><text dy="0.35em" x="75" y="15" text-anchor="middle" font-size="12" style="font-family: arial; fill: rgb(255, 255, 255); font-weight: bold;">External Surface Water</text></g><g class="node node--leaf" transform="translate(600,295.6578947368421)"><rect class="node" width="150" height="30" rx="6" ry="6" style="fill: rgb(169, 169, 169);"/><text dy="0.35em" x="75" y="15" text-anchor="middle" font-size="12" style="font-family: arial; fill: rgb(255, 255, 255); font-weight: bold;">Zone Groundwater</text></g><g class="node node--leaf" transform="translate(600,335.07894736842104)"><rect class="node" width="150" height="30" rx="6" ry="6" style="fill: rgb(169, 169, 169);"/><text dy="0.35em" x="75" y="15" text-anchor="middle" font-size="12" style="font-family: arial; fill: rgb(255, 255, 255); font-weight: bold;">Zone Land System</text></g><g class="node node--leaf" transform="translate(600,374.5)"><rect class="node" width="150" height="30" rx="6" ry="6" style="fill: rgb(169, 169, 169);"/><text dy="0.35em" x="75" y="15" text-anchor="middle" font-size="12" style="font-family: arial; fill: rgb(255, 255, 255); font-weight: bold;">Zone Surface Water</text></g><g class="node node--leaf" transform="translate(600,413.9210526315789)"><rect class="node" width="150" height="30" rx="6" ry="6" style="fill: rgb(169, 169, 169);"/><text dy="0.35em" x="75" y="15" text-anchor="middle" font-size="12" style="font-family: arial; fill: rgb(255, 255, 255); font-weight: bold;">Atmosphere</text></g><g class="node node--leaf" transform="translate(600,453.34210526315786)"><rect class="node" width="150" height="30" rx="6" ry="6" style="fill: rgb(169, 169, 169);"/><text dy="0.35em" x="75" y="15" text-anchor="middle" font-size="12" style="font-family: arial; fill: rgb(255, 255, 255); font-weight: bold;">External Groundwater</text></g><g class="node node--leaf" transform="translate(600,492.7631578947368)"><rect class="node" width="150" height="30" rx="6" ry="6" style="fill: rgb(169, 169, 169);"/><text dy="0.35em" x="75" y="15" text-anchor="middle" font-size="12" style="font-family: arial; fill: rgb(255, 255, 255); font-weight: bold;">External Surface Water</text></g><g class="node node--leaf" transform="translate(600,532.1842105263157)"><rect class="node" width="150" height="30" rx="6" ry="6" style="fill: rgb(169, 169, 169);"/><text dy="0.35em" x="75" y="15" text-anchor="middle" font-size="12" style="font-family: arial; fill: rgb(255, 255, 255); font-weight: bold;">Zone Groundwater</text></g><g class="node node--leaf" transform="translate(600,571.6052631578947)"><rect class="node" width="150" height="30" rx="6" ry="6" style="fill: rgb(169, 169, 169);"/><text dy="0.35em" x="75" y="15" text-anchor="middle" font-size="12" style="font-family: arial; fill: rgb(255, 255, 255); font-weight: bold;">Zone Land System</text></g><g class="node node--leaf" transform="translate(600,611.0263157894736)"><rect class="node" width="150" height="30" rx="6" ry="6" style="fill: rgb(169, 169, 169);"/><text dy="0.35em" x="75" y="15" text-anchor="middle" font-size="12" style="font-family: arial; fill: rgb(255, 255, 255); font-weight: bold;">Zone Surface Water</text></g><g class="node node--leaf" transform="translate(600,650.4473684210526)"><rect class="node" width="150" height="30" rx="6" ry="6" style="fill: rgb(169, 169, 169);"/><text dy="0.35em" x="75" y="15" text-anchor="middle" font-size="12" style="font-family: arial; fill: rgb(255, 255, 255); font-weight: bold;">Component</text></g><g class="node node--leaf" transform="translate(600,689.8684210526316)"><rect class="node" width="150" height="30" rx="6" ry="6" style="fill: rgb(169, 169, 169);"/><text dy="0.35em" x="75" y="15" text-anchor="middle" font-size="12" style="font-family: arial; fill: rgb(255, 255, 255); font-weight: bold;">Component</text></g><g class="node node--leaf" transform="translate(600,729.2894736842105)"><rect class="node" width="150" height="30" rx="6" ry="6" style="fill: rgb(169, 169, 169);"/><text dy="0.35em" x="75" y="15" text-anchor="middle" font-size="12" style="font-family: arial; fill: rgb(255, 255, 255); font-weight: bold;">Component</text></g><g class="node node--leaf" transform="translate(800,19.710526315789473)"><rect class="node" width="150" height="30" rx="6" ry="6" style="fill: rgb(169, 169, 169);"/><text dy="0.35em" x="75" y="15" text-anchor="middle" font-size="12" style="font-family: arial; fill: rgb(255, 255, 255); font-weight: bold;">Data Source</text></g></g></svg>