<?xml version="1.0" standalone="no"?><!DOCTYPE svg PUBLIC "-//W3C//DTD SVG 1.1//EN" "http://www.w3.org/Graphics/SVG/1.1/DTD/svg11.dtd"><svg xmlns="http://www.w3.org/2000/svg" height="450" width="1100"><g transform="translate(50,1)"><rect width="1100" height="450" transform="translate(-50,-11)" fill="#F8F8F8" rx="20"/><path class="link" fill="none" stroke="#ccc" d="M200,214.5C170,214.5 160,214.5 150,214.5"/><path class="link" fill="none" stroke="#ccc" d="M400,43.5C370,43.5 360,214.5 350,214.5"/><path class="link" fill="none" stroke="#ccc" d="M400,100.5C370,100.5 360,214.5 350,214.5"/><path class="link" fill="none" stroke="#ccc" d="M400,157.5C370,157.5 360,214.5 350,214.5"/><path class="link" fill="none" stroke="#ccc" d="M400,214.5C370,214.5 360,214.5 350,214.5"/><path class="link" fill="none" stroke="#ccc" d="M400,271.5C370,271.5 360,214.5 350,214.5"/><path class="link" fill="none" stroke="#ccc" d="M400,328.5C370,328.5 360,214.5 350,214.5"/><path class="link" fill="none" stroke="#ccc" d="M400,385.5C370,385.5 360,214.5 350,214.5"/><path class="link" fill="none" stroke="#ccc" d="M600,43.5C570,43.5 560,43.5 550,43.5"/><path class="link" fill="none" stroke="#ccc" d="M800,43.5C770,43.5 760,43.5 750,43.5"/><g class="node node--internal" transform="translate(0,199.5)"><rect class="node" width="150" height="30" rx="6" ry="6" style="fill: rgb(229, 94, 105);"/><text dy="0.35em" x="75" y="15" text-anchor="middle" font-size="11" style="font-family: arial; fill: rgb(255, 255, 255); font-weight: bold;">Jurisdiction</text></g><g class="node node--internal" transform="translate(200,199.5)"><rect class="node" width="150" height="30" rx="6" ry="6" style="fill: rgb(229, 94, 105);"/><text dy="0.35em" x="75" y="15" text-anchor="middle" font-size="11" style="font-family: arial; fill: rgb(255, 255, 255); font-weight: bold;">Component</text></g><g class="node node--internal" transform="translate(400,28.5)"><rect class="node" width="150" height="30" rx="6" ry="6" style="fill: rgb(229, 94, 105);"/><text dy="0.35em" x="75" y="15" text-anchor="middle" font-size="11" style="font-family: arial; fill: rgb(255, 255, 255); font-weight: bold;">Estimation Method</text></g><g class="node node--leaf" transform="translate(400,85.5)"><rect class="node" width="150" height="30" rx="6" ry="6" style="fill: rgb(229, 94, 105);"/><text dy="0.35em" x="75" y="15" text-anchor="middle" font-size="11" style="font-family: arial; fill: rgb(255, 255, 255); font-weight: bold;">Flow Type</text></g><g class="node node--leaf" transform="translate(400,142.5)"><rect class="node" width="150" height="30" rx="6" ry="6" style="fill: rgb(229, 94, 105);"/><text dy="0.35em" x="75" y="15" text-anchor="middle" font-size="11" style="font-family: arial; fill: rgb(255, 255, 255); font-weight: bold;">Flow Source</text></g><g class="node node--leaf" transform="translate(400,199.5)"><rect class="node" width="150" height="30" rx="6" ry="6" style="fill: rgb(229, 94, 105);"/><text dy="0.35em" x="75" y="15" text-anchor="middle" font-size="11" style="font-family: arial; fill: rgb(255, 255, 255); font-weight: bold;">Flow Sink</text></g><g class="node node--leaf" transform="translate(400,256.5)"><rect class="node" width="150" height="30" rx="6" ry="6" style="fill: rgb(229, 94, 105);"/><text dy="0.35em" x="75" y="15" text-anchor="middle" font-size="11" style="font-family: arial; fill: rgb(255, 255, 255); font-weight: bold;">Subcomponent of</text></g><g class="node node--leaf" transform="translate(400,313.5)"><rect class="node" width="150" height="30" rx="6" ry="6" style="fill: rgb(229, 94, 105);"/><text dy="0.35em" x="75" y="15" text-anchor="middle" font-size="11" style="font-family: arial; fill: rgb(255, 255, 255); font-weight: bold;">Partial Subcomponent of</text></g><g class="node node--leaf" transform="translate(400,370.5)"><rect class="node" width="150" height="30" rx="6" ry="6" style="fill: rgb(229, 94, 105);"/><text dy="0.35em" x="75" y="15" text-anchor="middle" font-size="11" style="font-family: arial; fill: rgb(255, 255, 255); font-weight: bold;">Exact Match</text></g><g class="node node--internal" transform="translate(600,28.5)"><rect class="node" width="150" height="30" rx="6" ry="6" style="fill: rgb(229, 94, 105);"/><text dy="0.35em" x="75" y="15" text-anchor="middle" font-size="11" style="font-family: arial; fill: rgb(255, 255, 255); font-weight: bold;">Parameter</text></g><g class="node node--leaf" transform="translate(800,28.5)"><rect class="node" width="150" height="30" rx="6" ry="6" style="fill: rgb(229, 94, 105);"/><text dy="0.35em" x="75" y="15" text-anchor="middle" font-size="11" style="font-family: arial; fill: rgb(255, 255, 255); font-weight: bold;">Data Source</text></g></g></svg>